<svg width="500" height="500" viewBox="0 0 500 500" fill="none" xmlns="http://www.w3.org/2000/svg">
<path d="M500 382.399H0V382.649H500V382.399Z" fill="#EBEBEB"/>
<path d="M111.659 390.79H78.5391V391.04H111.659V390.79Z" fill="#EBEBEB"/>
<path d="M163.5 398H133.33V398.25H163.5V398Z" fill="#EBEBEB"/>
<path d="M95.0996 400.069H56.8496V400.319H95.0996V400.069Z" fill="#EBEBEB"/>
<path d="M449.9 399.529H434V399.779H449.9V399.529Z" fill="#EBEBEB"/>
<path d="M430.791 399.529H391.471V399.779H430.791V399.529Z" fill="#EBEBEB"/>
<path d="M280.33 390.659H250V390.909H280.33V390.659Z" fill="#EBEBEB"/>
<path d="M356.77 390.659H284.67V390.909H356.77V390.659Z" fill="#EBEBEB"/>
<path d="M429.278 236.109L413.955 220.786L272.767 361.974L288.09 377.297L429.278 236.109Z" fill="#EBEBEB"/>
<path d="M361.931 303.449L346.611 288.119L325.721 309.009L339.771 331.419L361.931 303.449Z" fill="#E0E0E0"/>
<path d="M288.088 377.296L293.193 382.401L434.381 241.213L429.276 236.108L288.088 377.296Z" fill="#E0E0E0"/>
<path d="M288.093 225.885L272.77 241.208L413.958 382.396L429.281 367.073L288.093 225.885Z" fill="#EBEBEB"/>
<path d="M429.279 367.075L434.385 361.97L293.197 220.782L288.091 225.887L429.279 367.075Z" fill="#E0E0E0"/>
<path d="M176.202 268.548L164.273 256.619L54.389 366.504L66.3179 378.432L176.202 268.548Z" fill="#EBEBEB"/>
<path d="M123.78 320.949L111.85 309.029L95.5996 325.289L106.53 342.719L123.78 320.949Z" fill="#E0E0E0"/>
<path d="M66.3093 378.429L70.2832 382.403L180.168 272.519L176.194 268.545L66.3093 378.429Z" fill="#E0E0E0"/>
<path d="M66.3234 260.592L54.3945 272.521L164.279 382.405L176.208 370.476L66.3234 260.592Z" fill="#EBEBEB"/>
<path d="M176.188 370.469L180.162 366.495L70.2777 256.611L66.3038 260.585L176.188 370.469Z" fill="#E0E0E0"/>
<path d="M318.87 275.109H301.26V382.389H318.87V275.109Z" fill="#F5F5F5"/>
<path d="M318.87 319.689H301.26V332.559L318.87 328.759V319.689Z" fill="#EBEBEB"/>
<path d="M318.86 382.399H324.73V275.119H318.86V382.399Z" fill="#EBEBEB"/>
<path d="M134.399 275.109H116.789V382.389H134.399V275.109Z" fill="#F5F5F5"/>
<path d="M134.389 319.689H116.789V332.559L134.389 328.759V319.689Z" fill="#EBEBEB"/>
<path d="M134.39 382.399H140.26V275.119H134.39V382.399Z" fill="#EBEBEB"/>
<path d="M328.109 290.84H103.359V323.86H328.109V290.84Z" fill="#F5F5F5"/>
<path d="M328.11 323.85H331.41V290.83H328.11V323.85Z" fill="#EBEBEB"/>
<path d="M242.731 257.17H198.791L167.721 288.24V332.18L198.791 363.25H242.731L273.801 332.18V288.24L242.731 257.17Z" fill="#FAFAFA"/>
<path d="M240.72 262.02H200.8L172.57 290.25V330.17L200.8 358.4H240.72L268.95 330.17V290.25L240.72 262.02Z" fill="#F44631"/>
<path d="M182.189 314.82L187.809 314.32C187.856 315.359 188.107 316.379 188.549 317.32C188.781 317.816 189.15 318.235 189.613 318.528C190.075 318.82 190.612 318.974 191.159 318.97C191.536 319 191.914 318.94 192.262 318.793C192.61 318.647 192.918 318.42 193.159 318.13C193.625 317.569 193.87 316.858 193.849 316.13C193.855 315.44 193.622 314.769 193.189 314.23C192.347 313.447 191.312 312.902 190.189 312.65C188.062 312.111 186.137 310.964 184.649 309.35C183.486 307.85 182.895 305.986 182.979 304.09C182.966 302.71 183.256 301.345 183.829 300.09C184.374 298.879 185.269 297.858 186.399 297.16C187.835 296.371 189.464 296.001 191.099 296.09C192.114 296.02 193.132 296.156 194.092 296.49C195.053 296.823 195.936 297.347 196.689 298.03C197.969 299.32 198.689 301.38 198.979 304.2L193.409 304.67C193.357 303.707 193.035 302.778 192.479 301.99C192.231 301.709 191.922 301.488 191.575 301.344C191.229 301.2 190.854 301.137 190.479 301.16C190.191 301.141 189.902 301.186 189.634 301.294C189.366 301.401 189.125 301.567 188.929 301.78C188.579 302.204 188.394 302.74 188.409 303.29C188.404 303.72 188.557 304.136 188.839 304.46C189.401 304.972 190.093 305.318 190.839 305.46C192.802 305.969 194.674 306.779 196.389 307.86C197.464 308.616 198.308 309.654 198.829 310.86C199.349 312.129 199.608 313.489 199.589 314.86C199.613 316.521 199.272 318.166 198.589 319.68C197.993 321.058 197.001 322.227 195.739 323.04C194.345 323.847 192.75 324.243 191.139 324.18C187.893 324.18 185.643 323.287 184.389 321.5C183.047 319.522 182.285 317.208 182.189 314.82Z" fill="white"/>
<path d="M201.17 296.6H219.17V303.33H213.17V323.82H207.26V303.33H201.26L201.17 296.6Z" fill="white"/>
<path d="M220.141 310.23C220.141 305.79 221.011 302.33 222.751 299.85C223.592 298.705 224.691 297.773 225.957 297.128C227.224 296.484 228.624 296.146 230.046 296.14C231.467 296.134 232.87 296.461 234.142 297.095C235.414 297.729 236.52 298.652 237.371 299.79C239.124 302.223 240.001 305.627 240.001 310C240.084 312.656 239.702 315.306 238.871 317.83C238.247 319.686 237.118 321.331 235.611 322.58C234.091 323.745 232.214 324.346 230.301 324.28C228.408 324.356 226.539 323.842 224.951 322.81C223.379 321.629 222.184 320.017 221.511 318.17C220.542 315.638 220.076 312.941 220.141 310.23ZM226.051 310.23C226.051 312.983 226.411 314.957 227.131 316.15C227.41 316.687 227.832 317.136 228.349 317.45C228.867 317.764 229.46 317.93 230.066 317.93C230.671 317.93 231.264 317.764 231.782 317.45C232.299 317.136 232.721 316.687 233.001 316.15C233.701 314.97 234.001 312.86 234.001 309.82C234.134 307.885 233.762 305.948 232.921 304.2C232.631 303.658 232.198 303.207 231.669 302.894C231.14 302.582 230.535 302.422 229.921 302.43C229.323 302.437 228.739 302.609 228.233 302.926C227.726 303.244 227.317 303.695 227.051 304.23C226.384 305.483 226.051 307.497 226.051 310.27V310.23Z" fill="white"/>
<path d="M243.11 296.599H252.93C253.85 296.538 254.77 296.705 255.609 297.085C256.448 297.466 257.18 298.048 257.74 298.779C258.911 300.619 259.468 302.783 259.33 304.959C259.465 307.238 258.854 309.498 257.59 311.399C256.961 312.189 256.148 312.813 255.223 313.218C254.298 313.622 253.287 313.794 252.28 313.719H249V323.819H243.07L243.11 296.599ZM249 308.209H250.45C250.889 308.257 251.332 308.206 251.747 308.059C252.163 307.911 252.54 307.672 252.85 307.359C253.329 306.744 253.574 305.978 253.54 305.199C253.589 304.428 253.4 303.66 253 302.999C252.731 302.673 252.383 302.421 251.99 302.265C251.596 302.11 251.17 302.056 250.75 302.109H249V308.209Z" fill="white"/>
<path d="M411.35 102.75C410.306 102.754 409.266 102.879 408.25 103.12C406.93 100.12 404 98.2498 400.05 98.2498C397.026 98.3239 394.089 99.2797 391.6 101C389.92 95.3598 384.89 91.5898 377.87 91.5898C367.87 91.5898 357.42 99.2298 353.64 108.99C352.716 108.773 351.77 108.666 350.82 108.67H349.88C341.27 109.25 341.88 122.25 350.55 122.25H412C413.064 122.253 414.114 122.006 415.064 121.529C416.014 121.051 416.839 120.356 417.47 119.5C418.531 118.06 419.339 116.45 419.86 114.74C421.76 108.12 418 102.75 411.35 102.75Z" fill="#F0F0F0"/>
<path d="M171.361 45.1296C170.021 36.2496 162.941 30.0596 152.591 30.0596C144.111 30.0596 135.371 34.2096 128.861 40.5996C126.962 38.9531 124.513 38.082 122.001 38.1596C114.821 38.1596 107.291 43.9796 105.171 51.1596C104.856 52.2193 104.678 53.3148 104.641 54.4196L104.491 54.5196C98.5509 58.5196 101.491 67.9096 108.731 67.9096H172.001C173.208 67.9193 174.398 67.6271 175.464 67.0595C176.529 66.4919 177.436 65.6669 178.101 64.6596C179.089 63.1512 179.854 61.5074 180.371 59.7796C182.581 52.1396 178.611 45.8496 171.361 45.1296Z" fill="#F0F0F0"/>
<path d="M246.88 144.299C245.04 132.089 235.31 123.579 221.08 123.579C209.41 123.579 197.4 129.289 188.46 138.069C185.858 135.799 182.492 134.599 179.04 134.709C169.18 134.709 158.81 142.709 155.9 152.579C155.468 154.035 155.222 155.541 155.17 157.059L154.97 157.189C146.78 162.759 150.84 175.599 160.74 175.599H244C247.376 175.623 250.671 174.561 253.397 172.569C256.123 170.578 258.137 167.763 259.14 164.539V164.419C262.32 153.929 256.85 145.279 246.88 144.299Z" fill="#F5F5F5"/>
<path d="M249.999 427.56C357.082 427.56 443.889 422.492 443.889 416.24C443.889 409.988 357.082 404.92 249.999 404.92C142.917 404.92 56.1094 409.988 56.1094 416.24C56.1094 422.492 142.917 427.56 249.999 427.56Z" fill="#F5F5F5"/>
<path d="M128.739 128.92H78.5391V106.26L128.739 46.5898H152.739V107.59H165.189V128.97H152.759V147.51H128.759L128.739 128.92ZM128.739 107.54V76.3298L102.219 107.54H128.739Z" fill="#263238"/>
<path d="M364.909 46.5898V147.46H336.999V81.3598C332.927 84.5222 328.576 87.3071 323.999 89.6798C318.887 92.1459 313.578 94.1829 308.129 95.7698V73.1798C317.509 70.1465 324.792 66.5132 329.979 62.2798C335.171 58.0365 339.336 52.6723 342.159 46.5898H364.909Z" fill="#263238"/>
<path d="M311.819 173.19C311.379 173.98 311.039 174.55 310.649 175.19C310.259 175.83 309.869 176.43 309.479 177.05C308.689 178.27 307.849 179.45 306.999 180.63C305.285 182.996 303.445 185.27 301.489 187.44C299.498 189.668 297.356 191.756 295.079 193.69C292.713 195.741 290.143 197.544 287.409 199.07C286.549 199.572 285.649 200.004 284.719 200.36C283.747 200.731 282.743 201.012 281.719 201.2C279.894 201.516 278.036 201.603 276.189 201.46C272.993 201.181 269.853 200.454 266.859 199.3C264.096 198.247 261.421 196.976 258.859 195.5C256.341 194.063 253.934 192.438 251.659 190.64C251.015 190.118 250.578 189.383 250.425 188.568C250.272 187.753 250.414 186.91 250.825 186.19C251.235 185.469 251.888 184.918 252.668 184.634C253.447 184.351 254.301 184.353 255.079 184.64L255.259 184.71C259.968 186.593 264.829 188.068 269.789 189.12C271.975 189.576 274.208 189.761 276.439 189.67C277.31 189.633 278.172 189.475 278.999 189.2C279.308 189.1 279.606 188.969 279.889 188.81C280.169 188.65 280.219 188.6 280.789 188.21C284.617 185.397 288.051 182.084 290.999 178.36C292.569 176.44 294.099 174.45 295.549 172.36C296.289 171.36 296.989 170.29 297.699 169.25L298.699 167.69L299.639 166.22L299.799 165.97C300.789 164.457 302.327 163.385 304.09 162.98C305.853 162.574 307.704 162.867 309.255 163.797C310.807 164.727 311.938 166.221 312.413 167.966C312.887 169.712 312.667 171.573 311.799 173.16L311.819 173.19Z" fill="#FF8B7B"/>
<path d="M256.74 185.46L249.07 180.38L245.82 190.58C247.357 191.39 249.084 191.771 250.819 191.683C252.554 191.595 254.233 191.041 255.68 190.08L256.74 185.46Z" fill="#FF8B7B"/>
<path d="M242 181.911L241.399 185.161C241.291 185.737 241.348 186.332 241.564 186.877C241.78 187.422 242.146 187.895 242.619 188.241L245.789 190.581L249.039 180.381L245.96 179.481C245.539 179.357 245.098 179.323 244.664 179.381C244.23 179.439 243.813 179.587 243.44 179.816C243.066 180.045 242.745 180.35 242.497 180.71C242.249 181.071 242.08 181.48 242 181.911Z" fill="#FF8B7B"/>
<path d="M312.06 156.94C304.25 158.17 296.35 167.34 291.6 175.89C294.719 181.328 299.445 185.667 305.13 188.31C305.13 188.31 314.39 179.55 318.13 173.07C321.87 166.59 319.41 155.77 312.06 156.94Z" fill="#0061E0"/>
<path opacity="0.2" d="M312.06 156.94C304.25 158.17 296.35 167.34 291.6 175.89C294.719 181.328 299.445 185.667 305.13 188.31C305.13 188.31 314.39 179.55 318.13 173.07C321.87 166.59 319.41 155.77 312.06 156.94Z" fill="black"/>
<path d="M291.9 173.93C291.177 174.749 290.611 175.695 290.23 176.72C292.18 179.72 296.81 187.72 305.45 189.42C306.29 188.95 306.933 188.194 307.26 187.29C307.26 187.29 297.32 182.39 291.9 173.93Z" fill="#263238"/>
<path d="M343.53 156.671C334.09 155.09 324.476 154.814 314.96 155.851C307.86 156.761 302.56 163.291 302.61 170.441C302.646 177.9 303.315 185.344 304.61 192.691C302 206.441 301.06 225.131 303.81 229.251L353 229.941C355.11 224.061 352.46 198.611 355.27 172.041C355.652 168.463 354.647 164.875 352.463 162.016C350.279 159.157 347.082 157.244 343.53 156.671Z" fill="#0061E0"/>
<path opacity="0.2" d="M325.001 229.31C322.191 207.18 325.001 170.17 325.001 169.79L326.001 169.87C326.001 170.24 323.211 207.15 326.001 229.18L325.001 229.31Z" fill="black"/>
<path d="M319.65 156.54C321.34 155.91 320.71 154.97 320.71 154.97C320.71 154.97 313.03 154.97 307.71 156.4C306.9 157.26 307.77 158.4 307.77 158.4C307.77 158.4 314.62 158.42 319.65 156.54Z" fill="#263238"/>
<path opacity="0.2" d="M322.789 155C322.789 155 319.619 160.86 323.859 166.19C320.499 166.19 318.329 171.92 318.329 171.92C318.329 171.92 311.769 162.8 320.159 155.51C320.629 154.78 322.789 155 322.789 155Z" fill="black"/>
<path d="M319.401 157.84C318.581 161.42 325.791 168.17 325.791 168.17C325.791 168.17 338.541 162.01 339.351 158.48L319.401 157.84Z" fill="white"/>
<path opacity="0.2" d="M348.181 178.79C346.821 181.41 348.631 192.79 353.881 197.6C353.941 192.9 354.081 187.91 354.381 182.78L348.181 178.79Z" fill="black"/>
<path d="M336.69 137.25L323.53 145.89C325.09 149.71 325.82 153.69 321.32 155.53C320.742 155.762 320.247 156.162 319.898 156.678C319.55 157.194 319.363 157.802 319.363 158.425C319.363 159.048 319.55 159.656 319.898 160.172C320.247 160.688 320.742 161.088 321.32 161.32C322.646 161.802 324.033 162.095 325.44 162.19C329.67 162.6 333.934 161.911 337.82 160.19C338.229 159.986 338.589 159.694 338.874 159.337C339.16 158.979 339.364 158.564 339.472 158.119C339.581 157.675 339.591 157.212 339.503 156.763C339.414 156.314 339.229 155.89 338.96 155.52C335.51 150.64 335.93 142.16 336.69 137.25Z" fill="#FF8B7B"/>
<path opacity="0.2" d="M331.331 140.771L323.541 145.881C323.979 146.926 324.314 148.011 324.541 149.12C327.651 148.94 331.711 146.481 331.791 143.911C331.868 142.843 331.711 141.771 331.331 140.771Z" fill="black"/>
<path d="M322.08 120.77C325.43 120.7 326.34 125.51 325.08 127.14C327.62 127.69 328.85 130.66 328.08 132.14C327.31 133.62 324.37 135.29 321.75 134.63C317.26 133.51 316.49 129.78 317.75 128.08C315.35 126.1 316.57 120 322.08 120.77Z" fill="#263238"/>
<path opacity="0.2" d="M322.08 120.77C325.43 120.7 326.34 125.51 325.08 127.14C327.62 127.69 328.85 130.66 328.08 132.14C327.31 133.62 324.37 135.29 321.75 134.63C317.26 133.51 316.49 129.78 317.75 128.08C315.35 126.1 316.57 120 322.08 120.77Z" fill="white"/>
<path d="M341 128.7C340 136.59 339.81 141.26 335.54 145.04C329.11 150.71 319.54 146.35 318.18 138.29C316.94 131.04 318.79 119.35 326.76 116.77C328.526 116.208 330.405 116.101 332.223 116.46C334.041 116.818 335.739 117.63 337.16 118.82C338.58 120.01 339.677 121.54 340.348 123.267C341.02 124.994 341.244 126.863 341 128.7Z" fill="#FF8B7B"/>
<path d="M340.049 134.73C336.699 134.73 335.959 129.85 337.239 128.27C334.719 127.62 333.599 124.61 334.379 123.13C335.159 121.65 338.189 120.13 340.789 120.86C345.239 122.14 345.889 125.86 344.599 127.55C346.999 129.65 345.529 135.67 340.049 134.73Z" fill="#263238"/>
<path opacity="0.2" d="M340.049 134.73C336.699 134.73 335.959 129.85 337.239 128.27C334.719 127.62 333.599 124.61 334.379 123.13C335.159 121.65 338.189 120.13 340.789 120.86C345.239 122.14 345.889 125.86 344.599 127.55C346.999 129.65 345.529 135.67 340.049 134.73Z" fill="white"/>
<path opacity="0.2" d="M332 130C332.402 129.89 332.822 129.861 333.236 129.915C333.649 129.968 334.048 130.102 334.41 130.31C333.594 130.362 332.776 130.256 332 130Z" fill="black"/>
<path opacity="0.2" d="M332 130.54C332.381 130.519 332.762 130.581 333.116 130.723C333.47 130.864 333.789 131.082 334.05 131.36C333.317 131.234 332.618 130.954 332 130.54Z" fill="black"/>
<path opacity="0.2" d="M319.471 129.39C319.379 129.336 319.277 129.301 319.171 129.287C319.065 129.273 318.958 129.281 318.855 129.31C318.752 129.339 318.656 129.388 318.573 129.455C318.49 129.523 318.421 129.606 318.371 129.7C318.764 129.746 319.16 129.635 319.471 129.39Z" fill="black"/>
<path opacity="0.2" d="M319.481 130.001C319.481 130.001 318.871 129.911 318.551 130.821C318.933 130.642 319.256 130.358 319.481 130.001Z" fill="black"/>
<path d="M343.381 136.74C342.463 138.39 340.956 139.633 339.161 140.22C336.881 140.88 335.971 138.6 336.791 136.22C337.541 134.09 339.611 131.17 341.791 131.56C343.971 131.95 344.581 134.63 343.381 136.74Z" fill="#FF8B7B"/>
<path d="M330.4 130C330.4 130.64 329.99 131.14 329.56 131.11C329.13 131.08 328.83 130.53 328.88 129.88C328.93 129.23 329.29 128.74 329.72 128.77C330.15 128.8 330.45 129.37 330.4 130Z" fill="#263238"/>
<path d="M327.2 141.75C326.38 141.91 325.63 141.59 325.53 141.05C325.43 140.51 326.03 139.95 326.85 139.79C327.67 139.63 328.42 139.95 328.52 140.49C328.62 141.03 328 141.6 327.2 141.75Z" fill="#263238"/>
<path d="M321.65 129.31C321.65 129.95 321.23 130.45 320.81 130.42C320.39 130.39 320.07 129.84 320.12 129.19C320.17 128.54 320.54 128.05 320.96 128.08C321.38 128.11 321.69 128.66 321.65 129.31Z" fill="#263238"/>
<path d="M323.639 135.75C318.959 136.07 318.059 138.35 318.879 139.35C319.699 140.35 321.699 139.35 321.699 139.35C321.699 139.35 325.489 140.16 326.599 138.95C328.389 139.71 331.119 138.29 330.349 137.21C329.579 136.13 327.649 135.47 323.639 135.75Z" fill="#263238"/>
<path opacity="0.2" d="M323.639 135.75C318.959 136.07 318.059 138.35 318.879 139.35C319.699 140.35 321.699 139.35 321.699 139.35C321.699 139.35 325.489 140.16 326.599 138.95C328.389 139.71 331.119 138.29 330.349 137.21C329.579 136.13 327.649 135.47 323.639 135.75Z" fill="white"/>
<path d="M323.78 130C322.881 131.915 321.72 133.695 320.33 135.29C320.75 135.637 321.24 135.89 321.766 136.029C322.293 136.169 322.843 136.193 323.38 136.1L323.78 130Z" fill="#FF5652"/>
<path d="M331.811 126.64C331.874 126.632 331.935 126.612 331.991 126.58C332.033 126.552 332.069 126.517 332.098 126.475C332.126 126.434 332.146 126.387 332.157 126.338C332.167 126.288 332.167 126.238 332.158 126.188C332.148 126.139 332.129 126.092 332.101 126.05C331.782 125.532 331.342 125.099 330.82 124.787C330.298 124.476 329.708 124.295 329.101 124.26C329 124.26 328.903 124.3 328.832 124.371C328.761 124.442 328.721 124.539 328.721 124.64C328.721 124.741 328.761 124.837 328.832 124.908C328.903 124.98 329 125.02 329.101 125.02C329.579 125.054 330.042 125.203 330.451 125.454C330.86 125.704 331.203 126.049 331.451 126.46C331.488 126.52 331.541 126.57 331.605 126.601C331.669 126.633 331.74 126.646 331.811 126.64Z" fill="#263238"/>
<path d="M318.78 125.89C318.843 125.889 318.904 125.873 318.96 125.843C319.016 125.814 319.063 125.772 319.1 125.72C319.356 125.32 319.703 124.986 320.113 124.746C320.524 124.506 320.985 124.367 321.46 124.34C321.56 124.34 321.657 124.3 321.728 124.229C321.8 124.158 321.84 124.061 321.84 123.96C321.84 123.859 321.8 123.763 321.728 123.691C321.657 123.62 321.56 123.58 321.46 123.58C320.858 123.604 320.271 123.773 319.749 124.073C319.227 124.372 318.784 124.793 318.46 125.3C318.432 125.341 318.413 125.387 318.403 125.436C318.394 125.485 318.394 125.535 318.404 125.583C318.415 125.632 318.435 125.678 318.463 125.718C318.491 125.759 318.528 125.794 318.57 125.82C318.629 125.867 318.704 125.892 318.78 125.89Z" fill="#263238"/>
<path d="M331.691 310.8C333.931 274.72 333.431 237.7 329.541 229.64L303.791 229.25C303.791 229.25 307.001 289.57 308.001 313.6C309.051 338.6 311.291 403.6 311.291 403.6L326.191 403.78C326.191 403.78 334.931 338.71 331.691 310.8Z" fill="#263238"/>
<path opacity="0.2" d="M332.8 255.65C324.01 265.25 328.12 291.83 331.95 306.47C333 288.16 333.28 269.93 332.8 255.65Z" fill="black"/>
<path d="M326 405.66L312.9 405.49C312.071 405.448 311.252 405.691 310.58 406.18C306.78 409.18 303.89 409.27 299.58 410.04C294.41 410.97 296.97 416.17 300.78 416.23C307.08 416.33 306.55 416.1 311.93 416.18L315.65 416.23L317.33 414.52L318.82 416.23H325.7C325.879 416.234 326.056 416.2 326.221 416.13C326.385 416.06 326.533 415.955 326.654 415.824C326.775 415.692 326.867 415.537 326.923 415.367C326.979 415.197 326.999 415.018 326.98 414.84L326 405.66Z" fill="#263238"/>
<path d="M327.001 407C326.771 407 309.811 406.46 309.811 406.46L309.121 400.37L327.931 400.79L327.001 407Z" fill="#0061E0"/>
<path d="M361.929 310.8C359.169 274.72 357.999 238 352.999 229.94L321.949 229.54C321.949 229.54 334.299 289.54 338.639 313.6C343.149 338.6 355.289 403.6 355.289 403.6L370.219 403.78C370.219 403.78 368.999 338.71 361.929 310.8Z" fill="#263238"/>
<path d="M370.93 405.66L357.82 405.49C356.994 405.449 356.179 405.693 355.51 406.18C351.71 409.18 353.45 409.27 349.14 410.04C343.97 410.97 346.52 416.17 350.33 416.23C356.63 416.33 356.11 416.1 361.48 416.18L367.32 416.23L368.09 414.52L369.09 416.23H370.63C370.807 416.229 370.981 416.192 371.142 416.12C371.302 416.048 371.446 415.943 371.564 415.812C371.682 415.681 371.771 415.527 371.825 415.36C371.88 415.192 371.899 415.015 371.88 414.84L370.93 405.66Z" fill="#263238"/>
<path d="M371.92 407C371.68 407 354.65 406.46 354.65 406.46L353 400.33L371.87 400.75L371.92 407Z" fill="#0061E0"/>
<path d="M323.31 154.29C323.31 154.29 319.62 160.86 323.86 166.19C320.5 166.19 318.3 169.83 318.3 169.83C318.3 169.83 313.83 160.83 320.44 154.83C320.9 154.15 323.31 154.29 323.31 154.29Z" fill="#0061E0"/>
<path d="M354.329 232.68C336.759 233.41 316.609 233.63 304.009 232.68C303.94 232.677 303.873 232.659 303.812 232.626C303.752 232.593 303.699 232.546 303.659 232.49C302.833 231.09 302.453 229.472 302.569 227.85C302.58 227.731 302.635 227.62 302.724 227.54C302.813 227.46 302.93 227.417 303.049 227.42C319.679 227.87 336.209 227.85 353.589 227.42C353.685 227.418 353.778 227.445 353.859 227.497C353.939 227.548 354.002 227.623 354.039 227.71C354.621 229.15 354.873 230.701 354.779 232.25C354.772 232.365 354.722 232.473 354.638 232.553C354.555 232.632 354.445 232.678 354.329 232.68Z" fill="#263238"/>
<path opacity="0.2" d="M354.329 232.68C336.759 233.41 316.609 233.63 304.009 232.68C303.94 232.677 303.873 232.659 303.812 232.626C303.752 232.593 303.699 232.546 303.659 232.49C302.833 231.09 302.453 229.472 302.569 227.85C302.58 227.731 302.635 227.62 302.724 227.54C302.813 227.46 302.93 227.417 303.049 227.42C319.679 227.87 336.209 227.85 353.589 227.42C353.685 227.418 353.778 227.445 353.859 227.497C353.939 227.548 354.002 227.623 354.039 227.71C354.621 229.15 354.873 230.701 354.779 232.25C354.772 232.365 354.722 232.473 354.638 232.553C354.555 232.632 354.445 232.678 354.329 232.68Z" fill="black"/>
<path d="M320 227.14C319.792 229.351 319.971 231.581 320.53 233.73C324.34 234.32 332.16 233.88 332.16 233.88C332.273 231.664 332.193 229.442 331.92 227.24C325.92 227 320 227.14 320 227.14Z" fill="white"/>
<path d="M355.129 166.72L355.699 167.23L356.149 167.65L356.999 168.47C357.549 169.01 358.049 169.55 358.559 170.1C359.559 171.19 360.509 172.32 361.409 173.46C363.207 175.718 364.877 178.075 366.409 180.52C369.395 185.351 371.916 190.454 373.939 195.76C374.209 196.47 374.419 196.9 374.799 198.11C375.1 199.089 375.314 200.093 375.439 201.11C375.623 202.89 375.6 204.686 375.369 206.46C374.939 209.518 374.133 212.51 372.969 215.37C371.905 218.025 370.655 220.601 369.229 223.08C367.833 225.516 366.272 227.855 364.559 230.08C364.05 230.733 363.326 231.185 362.515 231.354C361.704 231.523 360.86 231.4 360.131 231.005C359.403 230.61 358.839 229.97 358.538 229.199C358.237 228.427 358.22 227.573 358.489 226.79L358.549 226.62C360.284 221.925 361.697 217.117 362.779 212.23C363.27 210.047 363.525 207.818 363.539 205.58C363.541 204.713 363.434 203.85 363.219 203.01C362.974 202.249 362.638 201.521 362.219 200.84C360.014 196.419 357.512 192.153 354.729 188.07C353.359 186.07 351.899 184.07 350.399 182.25C349.649 181.31 348.869 180.42 348.099 179.54L346.939 178.27L346.379 177.68L346.119 177.41L345.949 177.25C344.548 176.031 343.687 174.306 343.558 172.453C343.429 170.6 344.041 168.772 345.259 167.37C346.478 165.968 348.204 165.108 350.056 164.979C351.909 164.85 353.738 165.461 355.139 166.68L355.129 166.72Z" fill="#FF8B7B"/>
<path d="M346.511 158.06C354.301 159.41 362.061 168.69 366.691 177.31C363.497 182.698 358.715 186.967 353.001 189.53C353.001 189.53 343.86 180.63 340.21 174.11C336.56 167.59 339.181 156.79 346.511 158.06Z" fill="#0061E0"/>
<path d="M366.421 175.34C367.13 176.174 367.682 177.129 368.051 178.16C366.051 181.16 361.311 189.09 352.641 190.64C351.811 190.156 351.182 189.389 350.871 188.48C350.871 188.48 360.881 183.72 366.421 175.34Z" fill="#263238"/>
<path d="M340.869 157.36C339.259 156.67 339.869 155.76 339.869 155.76C339.869 155.76 347.279 156.02 352.349 157.63C353.099 158.52 352.219 159.63 352.219 159.63C352.219 159.63 345.649 159.41 340.869 157.36Z" fill="#263238"/>
<path opacity="0.2" d="M338.93 155.56C338.93 155.56 337.25 161.42 329.57 166.2C332.93 166.2 335.18 172.33 335.18 172.33C335.18 172.33 342.18 164.11 340.56 156C340.09 155.28 338.93 155.56 338.93 155.56Z" fill="black"/>
<path d="M338.71 154.5C338.71 154.5 336.71 160.84 329.57 166.2C332.93 166.2 335.26 169.83 335.26 169.83C335.26 169.83 342.14 164.11 340.56 156C340.037 155.394 339.411 154.887 338.71 154.5Z" fill="#0061E0"/>
<path d="M345.909 178.57C345.449 187.21 339.979 189.27 339.209 189.27C338.439 189.27 333.209 187.21 333.669 178.57L339.919 176.11L345.909 178.57Z" fill="white"/>
<path d="M359.371 226.101L353.211 231.401L361.381 236.711C361.381 236.711 366.381 231.231 363.901 228.111L359.371 226.101Z" fill="#FF8B7B"/>
<path d="M352.52 239.81L355.69 241.18C356.302 241.447 356.988 241.487 357.627 241.295C358.267 241.103 358.817 240.69 359.18 240.13L361.38 236.71L353.21 231.4L351.08 236.05C350.924 236.391 350.838 236.76 350.826 237.135C350.814 237.509 350.877 237.883 351.011 238.233C351.145 238.583 351.347 238.903 351.607 239.174C351.866 239.444 352.176 239.661 352.52 239.81Z" fill="#FF8B7B"/>
<path d="M317.701 119.13C312.211 119.88 314.051 121.62 326.291 123.18C338.531 124.74 341.601 123.51 341.601 123.51C341.601 123.51 327.541 119.1 317.701 119.13Z" fill="#263238"/>
<path d="M345.39 125.89C345.39 125.89 334.64 121.52 317.7 119.13C317.49 116.64 319.54 114 319.54 114C319.54 114 315.76 112.11 316.93 108.5C318.1 104.89 323.51 105.36 329.82 102.5C332.13 105.04 338.48 109.17 342.82 109.7C343.89 111.91 346.69 117.44 351.23 119.57C351.16 121.98 346.65 122.57 346.65 122.57C346.67 123.179 346.569 123.787 346.353 124.356C346.137 124.926 345.809 125.448 345.39 125.89Z" fill="#0061E0"/>
<path opacity="0.3" d="M346.641 122.57C342.711 119 328.751 112.48 319.541 114C319.541 114 317.491 116.65 317.701 119.13C334.641 121.52 345.391 125.89 345.391 125.89C345.808 125.447 346.134 124.926 346.349 124.356C346.563 123.786 346.662 123.179 346.641 122.57Z" fill="black"/>
<path d="M331.441 109.84C330.231 116 326.031 117.11 325.441 117.05C324.851 116.99 321.251 115.17 322.441 109.05L327.271 107.71L331.441 109.84Z" fill="white"/>
<path d="M251.75 210.78C251.139 210.779 250.55 210.555 250.093 210.15C249.636 209.745 249.343 209.186 249.27 208.58L242.13 150.39C242.049 149.727 242.235 149.059 242.646 148.533C243.058 148.007 243.662 147.666 244.325 147.585C244.988 147.504 245.656 147.69 246.182 148.102C246.708 148.513 247.049 149.117 247.13 149.78L254.23 208C254.272 208.326 254.249 208.657 254.162 208.974C254.076 209.291 253.927 209.587 253.726 209.847C253.524 210.106 253.273 210.323 252.987 210.485C252.701 210.647 252.386 210.75 252.06 210.79L251.75 210.78Z" fill="#263238"/>
<path d="M250.16 184.6C249.55 182.36 250.7 182.03 249.59 178.85C249 177.16 250.94 175.85 251.18 177.21C252.08 182.16 258.65 184.93 256.37 188.06C254.09 191.19 250.76 186.84 250.16 184.6Z" fill="#FF8B7B"/>
<path d="M294.729 100.786C296.69 69.5278 272.94 42.5979 241.681 40.6367C210.423 38.6756 183.493 62.4259 181.531 93.6845C179.57 124.943 203.321 151.873 234.579 153.834C265.838 155.795 292.768 132.045 294.729 100.786Z" fill="#0061E0"/>
<path d="M281.287 112.521C289.735 88.6788 277.255 62.5026 253.412 54.0549C229.57 45.6072 203.394 58.087 194.946 81.9293C186.499 105.772 198.978 131.948 222.821 140.395C246.663 148.843 272.839 136.363 281.287 112.521Z" fill="white"/>
<path d="M267.87 89.4899C264.11 84.4099 256.87 89.4899 254.7 94.8299C254.11 96.1547 253.723 97.5603 253.55 98.9999L251.16 82.6899L249.27 67.2299C249.07 65.9033 248.361 64.7067 247.294 63.8948C246.226 63.0829 244.883 62.7198 243.551 62.8826C242.22 63.0455 241.004 63.7215 240.164 64.7669C239.323 65.8122 238.923 67.1444 239.05 68.4799L238.58 64.6299C238.497 63.9595 238.283 63.312 237.95 62.7243C237.617 62.1366 237.171 61.6202 236.639 61.2047C236.106 60.7891 235.497 60.4826 234.846 60.3024C234.195 60.1223 233.515 60.0722 232.845 60.1549C232.174 60.2377 231.527 60.4516 230.939 60.7846C230.351 61.1176 229.835 61.5631 229.419 62.0956C229.004 62.6282 228.697 63.2374 228.517 63.8884C228.337 64.5394 228.287 65.2195 228.37 65.8899L229.03 71.2499C228.94 70.5245 228.697 69.8264 228.317 69.2021C227.936 68.5778 227.428 68.0416 226.824 67.6292C226.221 67.2168 225.536 66.9376 224.816 66.8101C224.097 66.6826 223.358 66.7098 222.65 66.8899C221.437 67.2012 220.378 67.943 219.672 68.977C218.965 70.011 218.659 71.2667 218.81 72.5099L219.63 79.1999C219.542 78.4738 219.3 77.7748 218.92 77.1497C218.54 76.5245 218.031 75.9877 217.427 75.575C216.823 75.1623 216.138 74.8832 215.418 74.7564C214.697 74.6297 213.958 74.6582 213.25 74.8399C212.038 75.1492 210.981 75.8895 210.276 76.9221C209.571 77.9548 209.266 79.209 209.42 80.4499L211.06 93.8199L212.23 103.41L213.78 116C214.88 125 218.39 130.08 223.6 132.37C231.6 135.88 246.25 135.92 252.83 130.58C258.59 125.91 262.29 114.66 263.18 107.69C264.07 100.72 269.4 91.5399 267.87 89.4899Z" fill="#263238"/>
<path d="M276.512 57.7445L267.176 50.4473L199.727 136.746L209.064 144.044L276.512 57.7445Z" fill="#0061E0"/>
<path d="M80.4395 180.08V161.88H93.6095V164H82.8494V169.58H92.9194V171.72H82.8494V177.91H93.9995V180.06L80.4395 180.08Z" fill="#263238"/>
<path d="M97.0488 180.08V166.89H99.0488V168.89C99.3858 168.18 99.8698 167.549 100.469 167.04C100.887 166.744 101.387 166.587 101.899 166.59C102.719 166.613 103.516 166.866 104.199 167.32L103.429 169.39C102.936 169.084 102.369 168.918 101.789 168.91C101.315 168.902 100.852 169.058 100.479 169.35C100.077 169.658 99.7832 170.085 99.6388 170.57C99.3872 171.417 99.2625 172.296 99.2688 173.18V180.08H97.0488Z" fill="#263238"/>
<path d="M105.52 180.08V166.89H107.52V168.89C107.869 168.159 108.374 167.514 109 167C109.418 166.705 109.918 166.548 110.43 166.55C111.25 166.572 112.047 166.825 112.73 167.28L111.96 169.35C111.467 169.044 110.9 168.878 110.32 168.87C109.845 168.862 109.383 169.017 109.01 169.31C108.608 169.618 108.314 170.045 108.17 170.53C107.918 171.377 107.793 172.256 107.8 173.14V180.04L105.52 180.08Z" fill="#263238"/>
<path d="M113.179 173.49C113.179 171.05 113.845 169.24 115.179 168.06C116.328 167.072 117.804 166.548 119.319 166.59C120.144 166.56 120.967 166.705 121.734 167.013C122.5 167.321 123.193 167.787 123.769 168.38C124.367 169.045 124.828 169.823 125.125 170.667C125.422 171.511 125.549 172.406 125.499 173.3C125.561 174.675 125.297 176.046 124.729 177.3C124.232 178.259 123.459 179.046 122.509 179.56C121.534 180.101 120.434 180.38 119.319 180.37C118.491 180.403 117.666 180.263 116.896 179.958C116.126 179.653 115.429 179.19 114.849 178.6C113.644 177.181 113.044 175.346 113.179 173.49ZM115.479 173.49C115.377 174.844 115.768 176.19 116.579 177.28C116.925 177.675 117.352 177.991 117.83 178.208C118.309 178.425 118.828 178.537 119.354 178.537C119.879 178.537 120.399 178.425 120.877 178.208C121.356 177.991 121.782 177.675 122.129 177.28C122.951 176.165 123.345 174.791 123.239 173.41C123.334 172.082 122.939 170.766 122.129 169.71C121.782 169.316 121.355 169.001 120.876 168.785C120.398 168.569 119.879 168.457 119.354 168.457C118.829 168.457 118.31 168.569 117.831 168.785C117.353 169.001 116.926 169.316 116.579 169.71C115.77 170.797 115.38 172.138 115.479 173.49Z" fill="#263238"/>
<path d="M128.129 180.08V166.89H130.129V168.89C130.462 168.177 130.947 167.546 131.549 167.04C131.967 166.744 132.467 166.587 132.979 166.59C133.799 166.613 134.596 166.866 135.279 167.32L134.509 169.39C134.015 169.085 133.449 168.919 132.869 168.91C132.392 168.902 131.926 169.057 131.549 169.35C131.15 169.659 130.86 170.086 130.719 170.57C130.462 171.416 130.338 172.296 130.349 173.18V180.08H128.129Z" fill="#263238"/>
<path d="M88.7492 202.69V200.75C88.3035 201.454 87.6837 202.031 86.9496 202.425C86.2156 202.819 85.3922 203.017 84.5592 203C83.8121 203.006 83.0725 202.852 82.3892 202.55C81.796 202.316 81.2751 201.93 80.8792 201.43C80.5408 200.928 80.3063 200.364 80.1892 199.77C80.0833 199.079 80.0398 198.379 80.0592 197.68V189.5H82.2892V196.81C82.2641 197.599 82.3109 198.389 82.4292 199.17C82.5497 199.725 82.8656 200.218 83.3192 200.56C83.8146 200.903 84.4069 201.078 85.0092 201.06C85.6734 201.062 86.326 200.886 86.8992 200.55C87.4593 200.23 87.8985 199.734 88.1492 199.14C88.4254 198.313 88.5474 197.441 88.5092 196.57V189.5H90.7492V202.69H88.7492Z" fill="#263238"/>
<path d="M94.25 202.69V189.5H96.25V191.37C96.7004 190.673 97.3249 190.107 98.0616 189.726C98.7982 189.346 99.6216 189.164 100.45 189.2C101.202 189.188 101.948 189.335 102.64 189.63C103.233 189.859 103.751 190.247 104.14 190.75C104.482 191.251 104.72 191.815 104.84 192.41C104.94 193.128 104.98 193.854 104.96 194.58V202.69H102.73V194.69C102.757 194.012 102.665 193.336 102.46 192.69C102.285 192.236 101.961 191.855 101.54 191.61C101.068 191.333 100.527 191.194 99.98 191.21C99.0738 191.194 98.194 191.515 97.51 192.11C96.82 192.72 96.51 193.87 96.51 195.56V202.76L94.25 202.69Z" fill="#263238"/>
<path d="M116.999 201.06C116.291 201.692 115.479 202.196 114.599 202.55C113.813 202.847 112.979 202.996 112.139 202.99C110.93 203.068 109.737 202.686 108.799 201.92C108.417 201.582 108.114 201.164 107.912 200.695C107.71 200.227 107.613 199.72 107.629 199.21C107.623 198.609 107.766 198.016 108.045 197.484C108.324 196.952 108.731 196.497 109.229 196.16C109.72 195.824 110.264 195.574 110.839 195.42C111.498 195.272 112.166 195.162 112.839 195.09C114.194 194.966 115.534 194.708 116.839 194.32C116.839 194.01 116.839 193.82 116.839 193.73C116.875 193.384 116.838 193.033 116.73 192.702C116.621 192.371 116.444 192.067 116.209 191.81C115.481 191.251 114.573 190.98 113.659 191.05C112.844 190.991 112.031 191.183 111.329 191.6C110.737 192.117 110.345 192.825 110.219 193.6L108.039 193.3C108.186 192.478 108.529 191.702 109.039 191.04C109.563 190.413 110.257 189.951 111.039 189.71C112.004 189.381 113.019 189.222 114.039 189.24C114.972 189.208 115.903 189.343 116.789 189.64C117.384 189.833 117.918 190.177 118.339 190.64C118.691 191.083 118.931 191.604 119.039 192.16C119.129 192.843 119.166 193.532 119.149 194.22V197.22C119.115 198.555 119.162 199.891 119.289 201.22C119.391 201.774 119.584 202.308 119.859 202.8H117.519C117.234 202.259 117.057 201.668 116.999 201.06ZM116.809 196.06C115.628 196.478 114.403 196.76 113.159 196.9C112.476 196.969 111.805 197.12 111.159 197.35C110.798 197.499 110.491 197.753 110.279 198.08C110.071 198.394 109.963 198.764 109.969 199.14C109.963 199.422 110.02 199.703 110.136 199.96C110.252 200.218 110.424 200.447 110.639 200.63C111.207 201.072 111.92 201.286 112.639 201.23C113.442 201.245 114.235 201.048 114.939 200.66C115.581 200.31 116.099 199.768 116.419 199.11C116.695 198.401 116.818 197.64 116.779 196.88L116.809 196.06Z" fill="#263238"/>
<path d="M131.19 202.69V200.75C130.744 201.454 130.124 202.031 129.39 202.425C128.656 202.819 127.833 203.017 127 203C126.25 203.005 125.507 202.851 124.82 202.55C124.231 202.313 123.714 201.927 123.32 201.43C122.973 200.933 122.738 200.366 122.63 199.77C122.519 199.079 122.473 198.379 122.49 197.68V189.5H124.73V196.81C124.705 197.599 124.752 198.389 124.87 199.17C124.99 199.725 125.306 200.218 125.76 200.56C126.255 200.903 126.848 201.078 127.45 201.06C128.114 201.062 128.767 200.886 129.34 200.55C129.9 200.23 130.339 199.734 130.59 199.14C130.866 198.313 130.988 197.441 130.95 196.57V189.5H133.19V202.69H131.19Z" fill="#263238"/>
<path d="M141.569 200.69L141.899 202.69C141.345 202.817 140.778 202.884 140.209 202.89C139.557 202.923 138.907 202.792 138.319 202.51C137.904 202.286 137.571 201.935 137.369 201.51C137.134 200.654 137.042 199.765 137.099 198.88V191.29H135.459V189.5H137.099V186.23L139.319 184.89V189.5H141.569V191.24H139.319V199C139.292 199.413 139.332 199.829 139.439 200.23C139.518 200.412 139.655 200.563 139.829 200.66C140.062 200.785 140.325 200.843 140.589 200.83C140.919 200.806 141.246 200.76 141.569 200.69Z" fill="#263238"/>
<path d="M143.76 202.689V184.479H146V190.999C146.48 190.42 147.084 189.956 147.768 189.643C148.452 189.33 149.198 189.175 149.95 189.189C150.835 189.166 151.712 189.365 152.5 189.77C153.178 190.114 153.722 190.673 154.05 191.359C154.408 192.317 154.565 193.338 154.51 194.359V202.719H152.28V194.359C152.355 193.483 152.094 192.611 151.55 191.919C151.278 191.656 150.955 191.452 150.6 191.322C150.245 191.191 149.867 191.135 149.49 191.16C148.832 191.159 148.186 191.335 147.62 191.669C147.063 191.986 146.627 192.479 146.38 193.07C146.096 193.847 145.967 194.673 146 195.499V202.719L143.76 202.689Z" fill="#263238"/>
<path d="M157.069 196.09C157.069 193.65 157.735 191.844 159.069 190.67C160.222 189.682 161.701 189.158 163.219 189.2C164.05 189.17 164.878 189.314 165.65 189.625C166.421 189.935 167.119 190.403 167.699 191C168.298 191.667 168.76 192.446 169.057 193.292C169.354 194.138 169.48 195.035 169.429 195.93C169.49 197.305 169.23 198.674 168.669 199.93C168.172 200.895 167.395 201.687 166.439 202.2C165.466 202.741 164.371 203.02 163.259 203.01C162.429 203.045 161.601 202.904 160.829 202.598C160.057 202.291 159.358 201.825 158.779 201.23C157.551 199.811 156.936 197.962 157.069 196.09ZM159.369 196.09C159.267 197.448 159.658 198.797 160.469 199.89C160.811 200.295 161.239 200.617 161.721 200.835C162.204 201.053 162.729 201.161 163.259 201.15C163.786 201.16 164.309 201.051 164.789 200.832C165.268 200.612 165.692 200.286 166.029 199.88C166.845 198.767 167.236 197.397 167.129 196.02C167.224 194.689 166.829 193.37 166.019 192.31C165.672 191.915 165.246 191.598 164.767 191.382C164.288 191.165 163.769 191.052 163.244 191.052C162.718 191.052 162.199 191.165 161.72 191.382C161.242 191.598 160.815 191.915 160.469 192.31C159.656 193.395 159.265 194.739 159.369 196.09Z" fill="#263238"/>
<path d="M172 202.69V189.5H174V191.5C174.331 190.786 174.816 190.154 175.42 189.65C175.838 189.355 176.338 189.197 176.85 189.2C177.669 189.219 178.466 189.469 179.15 189.92L178.38 192C177.89 191.687 177.322 191.517 176.74 191.51C176.266 191.506 175.805 191.661 175.43 191.95C175.031 192.26 174.737 192.687 174.59 193.17C174.339 194.017 174.215 194.897 174.22 195.78V202.69H172Z" fill="#263238"/>
<path d="M180.529 187.049V184.479H182.769V187.049H180.529ZM180.529 202.689V189.499H182.769V202.689H180.529Z" fill="#263238"/>
<path d="M185 202.69V200.88L193.4 191.24C192.4 191.24 191.6 191.31 190.88 191.31H185.5V189.5H196.28V191L189.14 199.37L187.76 200.9C188.76 200.82 189.7 200.78 190.58 200.78H196.68V202.71L185 202.69Z" fill="#263238"/>
<path d="M207.92 198.439L210.23 198.729C209.936 199.972 209.232 201.078 208.23 201.869C207.131 202.649 205.806 203.043 204.46 202.989C203.612 203.033 202.764 202.896 201.973 202.587C201.182 202.279 200.465 201.806 199.87 201.199C198.667 199.822 198.056 198.025 198.17 196.199C198.055 194.319 198.671 192.466 199.89 191.029C200.454 190.422 201.143 189.943 201.909 189.625C202.675 189.308 203.501 189.159 204.33 189.189C205.138 189.162 205.943 189.308 206.691 189.619C207.438 189.93 208.109 190.397 208.66 190.989C209.847 192.403 210.445 194.218 210.33 196.059C210.33 196.189 210.33 196.389 210.33 196.659H200.49C200.494 197.877 200.93 199.053 201.72 199.979C202.073 200.355 202.501 200.653 202.977 200.853C203.452 201.053 203.964 201.15 204.48 201.139C205.232 201.159 205.97 200.931 206.58 200.489C207.216 199.95 207.681 199.238 207.92 198.439ZM200.58 194.829H207.94C207.916 193.931 207.623 193.06 207.1 192.329C206.769 191.915 206.347 191.583 205.867 191.359C205.386 191.135 204.86 191.026 204.33 191.039C203.853 191.023 203.378 191.103 202.933 191.275C202.488 191.447 202.082 191.707 201.74 192.039C201.01 192.786 200.594 193.785 200.58 194.829Z" fill="#263238"/>
<path d="M221.59 202.69V201C221.213 201.636 220.671 202.157 220.021 202.51C219.372 202.862 218.639 203.031 217.9 203C216.868 203.005 215.859 202.702 215 202.13C214.103 201.528 213.392 200.686 212.95 199.7C212.452 198.574 212.206 197.352 212.23 196.12C212.214 194.892 212.438 193.672 212.89 192.53C213.279 191.519 213.98 190.657 214.89 190.07C215.764 189.5 216.787 189.201 217.83 189.21C218.571 189.198 219.303 189.37 219.96 189.71C220.554 190.03 221.069 190.478 221.47 191.02V184.49H223.7V202.7L221.59 202.69ZM214.53 196.11C214.425 197.456 214.8 198.795 215.59 199.89C215.888 200.276 216.27 200.59 216.706 200.808C217.142 201.027 217.622 201.143 218.11 201.15C218.589 201.153 219.062 201.046 219.494 200.838C219.925 200.63 220.304 200.326 220.6 199.95C221.358 198.888 221.712 197.59 221.6 196.29C221.731 194.882 221.379 193.471 220.6 192.29C220.299 191.894 219.911 191.573 219.465 191.352C219.019 191.132 218.528 191.018 218.03 191.02C217.549 191.016 217.073 191.123 216.641 191.335C216.208 191.547 215.831 191.857 215.54 192.24C214.771 193.377 214.414 194.743 214.53 196.11Z" fill="#263238"/>
</svg>
